# xmcd CD database file
#
# Track frame offsets:
#	150
#	34204
#	57447
#	82617
#	104551
#	129029
#	148577
#
# Disc length: 2513 seconds
#
# Revision: 2
# Processed by: cddbd v1.5.2PL0 Copyright (c) Steve Scherf et al.
# Submitted via: CDex 1.73
#
DISCID=5409cf07
DTITLE=Joe Pass and Herb Ellis - Seven Come Eleven
DYEAR=1974
DGENRE=Jazz
TTITLE0=In A Mellow Tone
TTITLE1=Seven Come Eleven
TTITLE2=Prelude To A Kiss
TTITLE3=Perdido
TTITLE4=I'm Confessin'
TTITLE5=Easy Living
TTITLE6=Concord Blues
EXTD=YEAR: 1974
EXTT0=
EXTT1=
EXTT2=
EXTT3=
EXTT4=
EXTT5=
EXTT6=
PLAYORDER=
